<svg width="24" height="24" viewBox="0 0 24 24" fill="none" xmlns="http://www.w3.org/2000/svg">
<path d="M9.50074 19H14.4998M12.0003 5C11.0986 4.9998 10.2136 5.22727 9.43912 5.65831C8.66462 6.08935 8.02944 6.70791 7.60084 7.44848C7.17224 8.18905 6.96619 9.02405 7.00452 9.86503C7.04285 10.706 7.32412 11.5216 7.81855 12.2256C8.6134 13.3549 9.01 13.9196 9.06249 14.0036C9.52073 14.7541 9.43658 14.4897 9.49407 15.3522C9.50074 15.4487 9.50074 15.5957 9.50074 15.8889C9.50074 16.0952 9.58852 16.293 9.74477 16.4389C9.90102 16.5847 10.1129 16.6667 10.3339 16.6667H13.6666C13.8876 16.6667 14.0995 16.5847 14.2558 16.4389C14.412 16.293 14.4998 16.0952 14.4998 15.8889C14.4998 15.5957 14.4998 15.4487 14.5065 15.3522C14.5648 14.4889 14.479 14.7541 14.9381 14.0036C14.9897 13.9196 15.388 13.3549 16.182 12.2248C16.6762 11.5209 16.9573 10.7053 16.9955 9.86446C17.0337 9.0236 16.8276 8.18874 16.3991 7.4483C15.9705 6.70786 15.3354 6.08939 14.561 5.65838C13.7867 5.22738 12.9018 4.99989 12.0003 5Z" stroke="black" stroke-width="1.2" stroke-linecap="round" stroke-linejoin="round"/>
<circle cx="12" cy="10" r="3" fill="#FEBC2E"/>
</svg>
