<svg width="12" height="11" viewBox="0 0 12 11" fill="none" xmlns="http://www.w3.org/2000/svg">
<path d="M1.00789 6.10131C0.735531 5.6122 0.599609 5.36713 0.599609 5.09992C0.599609 4.83271 0.735531 4.58815 1.00789 4.09904L1.70191 2.85001L2.43609 1.62414C2.7239 1.14378 2.86754 0.903346 3.09871 0.769484C3.33039 0.636137 3.60996 0.632019 4.1696 0.622751L5.59935 0.600098L7.02807 0.622751C7.58823 0.632019 7.8678 0.636137 8.09897 0.769999C8.33014 0.903861 8.47481 1.14378 8.7621 1.62414L9.49679 2.85001L10.1918 4.09904C10.4637 4.58815 10.5996 4.83271 10.5996 5.09992C10.5996 5.36713 10.4637 5.61168 10.1913 6.10079L9.49679 7.34983L8.76261 8.57569C8.47481 9.05605 8.33117 9.29649 8.1 9.43035C7.86831 9.5637 7.58875 9.56782 7.0291 9.57708L5.59935 9.59974L4.17063 9.57708C3.61047 9.56782 3.33091 9.5637 3.09974 9.42984C2.86857 9.29597 2.7239 9.05605 2.43661 8.57569L1.70191 7.34983L1.00789 6.10131Z" stroke="black" stroke-width="1.2"/>
<path d="M5.59925 6.64479C6.45229 6.64479 7.14381 5.95326 7.14381 5.10022C7.14381 4.24719 6.45229 3.55566 5.59925 3.55566C4.74621 3.55566 4.05469 4.24719 4.05469 5.10022C4.05469 5.95326 4.74621 6.64479 5.59925 6.64479Z" stroke="black" stroke-width="1.2"/>
</svg>
